<svg width="375" height="812" viewBox="0 0 375 812" fill="none" xmlns="http://www.w3.org/2000/svg">
<rect width="375" height="812" fill="white"/>
<rect width="375" height="812" fill="#16171D"/>
<g opacity="0.1" clip-path="url(#clip0_9_1710)">
<g style="mix-blend-mode:color-dodge">
<path d="M415.574 464.046C415.072 464.073 414.571 464.101 414.069 464.128C398.544 440.103 383.815 417.302 369.818 395.64C370.285 395.621 370.752 395.602 371.219 395.583C385.25 417.241 400.015 440.03 415.574 464.046Z" fill="#ABABAB"/>
<path d="M398.386 475.931C397.876 475.958 397.363 475.989 396.854 476.016C387.053 460.19 377.581 444.893 368.417 430.102C368.904 430.079 369.394 430.056 369.88 430.032C379.063 444.82 388.559 460.109 398.386 475.931Z" fill="#ABABAB"/>
<path d="M381.815 490.151C381.294 490.182 380.773 490.213 380.252 490.244C363.519 461.997 347.759 435.39 332.89 410.289C333.373 410.266 333.852 410.246 334.334 410.223C349.241 435.317 365.044 461.916 381.819 490.151H381.815Z" fill="#ABABAB"/>
<path d="M338.063 458.021C337.553 458.048 337.047 458.075 336.538 458.102C331.995 450.066 327.533 442.172 323.148 434.414C323.646 434.391 324.14 434.367 324.638 434.34C329.034 442.095 333.512 449.989 338.066 458.021H338.063Z" fill="#ABABAB"/>
<path d="M310.136 452.204C309.626 452.231 309.117 452.254 308.607 452.281C302.721 441.342 296.973 430.662 291.365 420.236C291.859 420.213 292.349 420.19 292.843 420.167C298.471 430.588 304.234 441.265 310.136 452.2V452.204Z" fill="#ABABAB"/>
<path d="M292.048 465.224C291.531 465.251 291.01 465.278 290.493 465.305C279.106 443.01 268.259 421.772 257.918 401.519C258.405 401.5 258.891 401.477 259.374 401.457C269.749 421.707 280.63 442.936 292.048 465.224Z" fill="#ABABAB"/>
<path d="M260.393 452.015C259.876 452.042 259.362 452.069 258.845 452.092C249.095 431.912 239.769 412.609 230.841 394.135C231.327 394.116 231.81 394.096 232.296 394.073C241.255 412.543 250.612 431.839 260.393 452.015Z" fill="#ABABAB"/>
<path d="M242.448 467.47C241.919 467.497 241.394 467.528 240.865 467.555C229.884 443.45 219.462 420.576 209.561 398.836C210.051 398.817 210.541 398.794 211.032 398.775C220.967 420.506 231.428 443.373 242.448 467.47Z" fill="#ABABAB"/>
<path d="M215.447 464.143C214.919 464.17 214.39 464.197 213.861 464.224C201.181 434.58 189.296 406.796 178.133 380.695C178.616 380.675 179.102 380.656 179.585 380.641C190.79 406.734 202.721 434.51 215.451 464.143H215.447Z" fill="#ABABAB"/>
<path d="M190.864 466.718C190.331 466.745 189.794 466.772 189.262 466.802C179.303 441.898 169.873 418.306 160.926 395.926C161.42 395.907 161.918 395.887 162.412 395.864C171.398 418.237 180.866 441.821 190.867 466.718H190.864Z" fill="#ABABAB"/>
<path d="M167.422 473.094C166.882 473.121 166.341 473.152 165.797 473.179C160.551 459.063 155.46 445.372 150.523 432.086C151.04 432.063 151.561 432.036 152.079 432.013C157.039 445.295 162.153 458.982 167.422 473.094Z" fill="#ABABAB"/>
<path d="M141.479 473.662L139.843 473.75C132.767 453.15 125.997 433.441 119.516 414.573C120.029 414.55 120.539 414.527 121.052 414.508C127.564 433.368 134.365 453.069 141.475 473.662H141.479Z" fill="#ABABAB"/>
<path d="M128.081 514.357C127.51 514.392 126.939 514.427 126.364 514.461C114.135 475.653 102.849 439.837 92.4038 406.68C92.9133 406.657 93.4267 406.637 93.9362 406.614C104.439 439.76 115.787 475.561 128.081 514.357Z" fill="#ABABAB"/>
<path d="M118.848 578.027C118.235 578.069 117.625 578.112 117.011 578.154C98.2441 512.663 81.7197 454.995 67.0596 403.827C67.5729 403.804 68.0863 403.785 68.5997 403.762C83.3486 454.914 99.9733 512.558 118.852 578.023L118.848 578.027Z" fill="#ABABAB"/>
<path d="M122.905 707.517C122.214 707.578 121.523 707.64 120.832 707.706C105.585 648.579 91.817 595.184 79.3224 546.727C67.9316 502.553 57.5059 462.117 47.9255 424.965C48.4544 424.941 48.9832 424.918 49.512 424.895C59.158 462.035 69.6532 502.453 81.1211 546.611C93.7007 595.049 107.558 648.417 122.905 707.517Z" fill="#ABABAB"/>
<path d="M76.5703 651.737C75.9063 651.791 75.2425 651.845 74.5786 651.899C64.616 608.397 55.41 568.192 46.8718 530.924C47.4663 530.889 48.0607 530.851 48.6551 530.816C57.2551 568.072 66.5344 608.258 76.5703 651.74V651.737Z" fill="#ABABAB"/>
<path d="M42.7573 642.87C42.0934 642.924 41.4295 642.974 40.7656 643.028C30.7529 592.976 21.6164 547.294 13.2441 505.437C13.827 505.402 14.4099 505.371 14.9927 505.336C23.4383 547.178 32.6558 592.841 42.7573 642.87Z" fill="#ABABAB"/>
<path d="M4.56298 606.617C3.9145 606.664 3.26988 606.71 2.62141 606.76C-4.76653 563.529 -11.5716 523.686 -17.8672 486.851C-17.2921 486.82 -16.7131 486.789 -16.1379 486.758C-9.77674 523.582 -2.89831 563.405 4.56298 606.617Z" fill="#ABABAB"/>
<path d="M394.897 459.048C389.879 459.314 384.857 459.581 379.824 459.847C376.956 455.157 374.115 450.517 371.305 445.92C376.269 445.669 381.225 445.418 386.169 445.167C389.049 449.745 391.955 454.373 394.897 459.048Z" fill="#ABABAB"/>
<path d="M371.127 460.306C366.07 460.572 361.006 460.843 355.934 461.113C351.129 452.895 346.408 444.82 341.772 436.892C346.724 436.649 351.665 436.409 356.598 436.166C361.354 444.071 366.198 452.115 371.127 460.306Z" fill="#ABABAB"/>
<path d="M340.101 449.278C335.067 449.533 330.026 449.792 324.974 450.05C323.63 447.642 322.295 445.245 320.967 442.863C325.981 442.612 330.987 442.365 335.982 442.118C337.349 444.492 338.719 446.881 340.101 449.282V449.278Z" fill="#ABABAB"/>
<path d="M310.746 440.443C305.724 440.69 300.695 440.937 295.657 441.184C293.928 437.918 292.207 434.68 290.5 431.461C295.488 431.225 300.467 430.986 305.438 430.75C307.195 433.958 308.963 437.189 310.746 440.443Z" fill="#ABABAB"/>
<path d="M286.953 441.612C281.893 441.863 276.821 442.11 271.745 442.361C268.456 435.822 265.218 429.376 262.022 423.027C266.997 422.799 271.965 422.571 276.925 422.34C280.218 428.67 283.56 435.093 286.953 441.612Z" fill="#ABABAB"/>
<path d="M256.977 430.623C251.939 430.863 246.894 431.098 241.842 431.337C239.02 425.401 236.237 419.545 233.489 413.767C238.449 413.547 243.401 413.327 248.342 413.111C251.183 418.87 254.058 424.71 256.973 430.627L256.977 430.623Z" fill="#ABABAB"/>
<path d="M237.87 441.968C232.74 442.218 227.598 442.469 222.453 442.72C219.296 435.668 216.188 428.728 213.131 421.896C218.169 421.668 223.194 421.44 228.216 421.209C231.385 428.022 234.604 434.939 237.874 441.968H237.87Z" fill="#ABABAB"/>
<path d="M209.067 432.885C203.953 433.128 198.827 433.368 193.693 433.611C190.084 425.015 186.544 416.584 183.074 408.313C188.069 408.096 193.056 407.884 198.035 407.668C201.641 415.913 205.319 424.316 209.067 432.881V432.885Z" fill="#ABABAB"/>
<path d="M187.432 440.381C182.24 440.632 177.041 440.883 171.834 441.134C168.981 433.858 166.179 426.698 163.419 419.653C168.51 419.425 173.59 419.198 178.662 418.97C181.538 425.991 184.46 433.124 187.432 440.377V440.381Z" fill="#ABABAB"/>
<path d="M169.105 457.986C163.782 458.256 158.451 458.53 153.109 458.801C151.584 454.609 150.071 450.452 148.574 446.333C153.846 446.074 159.108 445.82 164.361 445.561C165.928 449.664 167.507 453.806 169.101 457.986H169.105Z" fill="#ABABAB"/>
<path d="M141.24 451.795C135.917 452.061 130.583 452.324 125.24 452.59C123.206 446.53 121.203 440.551 119.223 434.649C124.464 434.402 129.699 434.159 134.921 433.916C136.998 439.798 139.105 445.758 141.24 451.795Z" fill="#ABABAB"/>
<path d="M122.654 473.476C117.173 473.766 111.68 474.059 106.176 474.349C102.76 463.216 99.425 452.351 96.1672 441.74C101.482 441.485 106.794 441.234 112.09 440.979C115.529 451.556 119.045 462.383 122.65 473.472L122.654 473.476Z" fill="#ABABAB"/>
<path d="M106.898 509.328C101.174 509.663 95.4377 509.999 89.6941 510.335C84.6376 492.174 79.7702 474.685 75.0803 457.832C80.5267 457.558 85.9615 457.288 91.3886 457.014C96.3679 473.808 101.536 491.232 106.902 509.324L106.898 509.328Z" fill="#ABABAB"/>
<path d="M100.915 589.85C94.689 590.294 88.4513 590.738 82.1982 591.185C74.7832 561.475 67.7735 533.41 61.146 506.853C66.9128 506.521 72.6679 506.189 78.4115 505.857C85.4984 532.31 92.9867 560.263 100.915 589.85Z" fill="#ABABAB"/>
<path d="M74.6906 605.73C68.3256 606.197 61.949 606.668 55.5569 607.139C52.8009 594.644 50.1066 582.443 47.4741 570.519C53.65 570.102 59.8183 569.685 65.971 569.269C68.8081 581.142 71.7146 593.293 74.6906 605.73Z" fill="#ABABAB"/>
<path d="M40.7578 590.07C34.4352 590.518 28.1048 590.965 21.759 591.413C19.0301 577.166 16.3706 563.305 13.7844 549.811C19.887 549.421 25.9741 549.031 32.0536 548.641C34.879 562.081 37.7779 575.885 40.7616 590.07H40.7578Z" fill="#ABABAB"/>
<path d="M5.14195 560.974C-1.05327 561.379 -7.26007 561.788 -13.4823 562.197C-15.4972 549.807 -17.4619 537.717 -19.3765 525.914C-13.3742 525.555 -7.38362 525.196 -1.4007 524.837C0.726136 536.594 2.90704 548.633 5.14195 560.974Z" fill="#ABABAB"/>
</g>
</g>
<defs>
<clipPath id="clip0_9_1710">
<rect width="375" height="517" fill="white" transform="translate(0 295)"/>
</clipPath>
</defs>
</svg>
