<svg width="25" height="25" viewBox="0 0 25 25" fill="none" xmlns="http://www.w3.org/2000/svg">
<path d="M4.28662 13.8071V21.8071H11.2866V13.8071H4.28662ZM12.2866 13.8071V21.8071H19.2866V13.8071H12.2866ZM20.2866 13.8071V22.8071H3.28662V13.8071H2.28662V7.80713H5.32662L5.28662 7.30713C5.28662 6.37887 5.65537 5.48863 6.31175 4.83226C6.96812 4.17588 7.85836 3.80713 8.78662 3.80713C10.0566 3.80713 11.1766 4.48713 11.7866 5.50713C12.3966 4.48713 13.5166 3.80713 14.7866 3.80713C15.7149 3.80713 16.6051 4.17588 17.2615 4.83226C17.9179 5.48863 18.2866 6.37887 18.2866 7.30713L18.2466 7.80713H21.2866V13.8071H20.2866ZM3.28662 8.80713V12.8071H11.2866V8.80713H3.28662ZM20.2866 12.8071V8.80713H12.2866V12.8071H20.2866ZM17.2366 7.80713L17.2866 7.30713C17.2866 6.64409 17.0232 6.0082 16.5544 5.53936C16.0855 5.07052 15.4497 4.80713 14.7866 4.80713C14.1236 4.80713 13.4877 5.07052 13.0189 5.53936C12.55 6.0082 12.2866 6.64409 12.2866 7.30713V7.80713H17.2366ZM11.2866 7.80713V7.30713C11.2866 6.64409 11.0232 6.0082 10.5544 5.53936C10.0855 5.07052 9.44966 4.80713 8.78662 4.80713C8.12358 4.80713 7.4877 5.07052 7.01885 5.53936C6.55001 6.0082 6.28662 6.64409 6.28662 7.30713L6.33662 7.80713H11.2866Z" fill="#9C9C9C"/>
</svg>
