<svg width="25" height="24" viewBox="0 0 25 24" fill="none" xmlns="http://www.w3.org/2000/svg">
<path d="M14.7418 7.19995H2.7418C1.4182 7.19995 0.341797 8.27635 0.341797 9.59995V21.5999C0.341797 22.9235 1.4182 23.9999 2.7418 23.9999H14.7418C16.0654 23.9999 17.1418 22.9235 17.1418 21.5999V9.59995C17.1418 8.27635 16.0654 7.19995 14.7418 7.19995Z" fill="white"/>
<path d="M21.942 0H9.94199C9.30547 0 8.69502 0.252856 8.24494 0.702944C7.79485 1.15303 7.54199 1.76348 7.54199 2.4V4.8H17.142C17.7785 4.8 18.389 5.05286 18.839 5.50294C19.2891 5.95303 19.542 6.56348 19.542 7.2V16.8H21.942C22.5785 16.8 23.189 16.5471 23.639 16.0971C24.0891 15.647 24.342 15.0365 24.342 14.4V2.4C24.342 1.76348 24.0891 1.15303 23.639 0.702944C23.189 0.252856 22.5785 0 21.942 0Z" fill="white"/>
</svg>
