<svg width="19" height="16" viewBox="0 0 19 16" fill="none" xmlns="http://www.w3.org/2000/svg">
<path fill-rule="evenodd" clip-rule="evenodd" d="M1.25889 7.30848C6.09072 5.19163 9.3127 3.79608 10.9248 3.12181C15.5278 1.19666 16.4842 0.862235 17.1076 0.851192C17.2447 0.848763 17.5513 0.882932 17.7499 1.04496C17.9176 1.18178 17.9637 1.3666 17.9858 1.49632C18.0078 1.62604 18.0353 1.92154 18.0135 2.15243C17.764 4.78782 16.6847 11.1832 16.1357 14.1349C15.9033 15.3839 15.4458 15.8027 15.0029 15.8436C14.0404 15.9327 13.3095 15.204 12.3773 14.5895C10.9185 13.628 10.0944 13.0294 8.67839 12.0911C7.04196 11.0067 8.10279 10.4107 9.03539 9.43669C9.27945 9.18179 13.5203 5.30296 13.6024 4.95109C13.6127 4.90708 13.6222 4.74304 13.5253 4.65642C13.4284 4.5698 13.2853 4.59942 13.1821 4.62298C13.0358 4.65637 10.7054 6.20525 6.19086 9.26961C5.52938 9.72636 4.93023 9.9489 4.39341 9.93724C3.80162 9.92439 2.66323 9.60077 1.81696 9.32415C0.778978 8.98487 -0.0459913 8.80549 0.025845 8.22928C0.0632618 7.92916 0.474277 7.62222 1.25889 7.30848Z" fill="#FCD331"/>
</svg>
