<svg width="13" height="20" viewBox="0 0 13 20" fill="none" xmlns="http://www.w3.org/2000/svg">
<path fill-rule="evenodd" clip-rule="evenodd" d="M4.96175 0.48999C6.06015 0.48999 7.15452 0.48999 8.25292 0.48999C8.18831 1.23303 8.11966 1.9801 8.05909 2.72314C9.33921 2.81602 10.587 3.22792 11.7097 3.8377C11.2251 5.05725 10.7364 6.2768 10.2478 7.49635C9.30287 6.69274 8.05909 6.24853 6.81934 6.26468C6.5084 6.27276 6.18534 6.33333 5.92689 6.51102C5.75728 6.62813 5.6321 6.80985 5.59575 7.01176C5.56749 7.17329 5.57556 7.35501 5.6644 7.50039C5.76536 7.66192 5.94304 7.75884 6.12073 7.81941C6.48417 7.94863 6.87588 7.95671 7.25547 7.99709C8.14793 8.10612 9.04442 8.25958 9.88841 8.5786C10.5426 8.82897 11.1685 9.20453 11.6168 9.75373C12.0408 10.2585 12.2871 10.8966 12.38 11.5508C12.489 12.3059 12.4567 13.0893 12.2225 13.8243C12.0408 14.4139 11.7299 14.9631 11.326 15.4275C10.4901 16.3966 9.26248 16.9782 8.00255 17.1276C8.04293 17.9231 8.09139 18.7146 8.13581 19.5101C7.09394 19.5101 6.05611 19.5101 5.01828 19.5101C5.05867 18.7227 5.11116 17.9352 5.14751 17.1478C4.31159 17.1195 3.48375 16.9337 2.70437 16.6389C1.94922 16.3522 1.23041 15.9726 0.560059 15.5284C1.05272 14.2604 1.54539 12.9924 2.0421 11.7204C2.60341 12.1928 3.20107 12.633 3.85527 12.9682C4.55792 13.3276 5.33731 13.5578 6.1288 13.5658C6.50436 13.5699 6.89203 13.5497 7.2474 13.4205C7.46546 13.3397 7.67949 13.1984 7.77641 12.9763C7.87736 12.742 7.86929 12.4472 7.71583 12.2373C7.6068 12.0959 7.45335 11.999 7.29182 11.9303C7.07375 11.8415 6.84761 11.793 6.61743 11.7567C5.7694 11.6194 4.91733 11.5063 4.09756 11.2398C3.43933 11.0258 2.79725 10.7269 2.27228 10.2666C1.94114 9.97987 1.66654 9.62854 1.4727 9.2328C1.18195 8.64321 1.07292 7.9769 1.08099 7.32271C1.08099 6.59178 1.23041 5.84874 1.59385 5.20666C1.90883 4.63323 2.38939 4.1648 2.93051 3.80539C3.58471 3.3733 4.31563 3.07851 5.05867 2.84025C5.02636 2.05683 4.99406 1.27341 4.96175 0.48999Z" fill="#FCD331"/>
</svg>
