<svg width="20" height="20" viewBox="0 0 20 20" fill="none" xmlns="http://www.w3.org/2000/svg">
<path d="M1.66675 5L7.4276 8.26414C9.55141 9.4675 10.4487 9.4675 12.5726 8.26414L18.3334 5" stroke="white" stroke-width="1.25" stroke-linejoin="round"/>
<path d="M1.67989 11.2295C1.73436 13.7842 1.76161 15.0614 2.70421 16.0077C3.64681 16.9538 4.95869 16.9868 7.58244 17.0527C9.1995 17.0933 10.8007 17.0933 12.4177 17.0527C15.0415 16.9868 16.3533 16.9538 17.296 16.0077C18.2386 15.0614 18.2658 13.7842 18.3202 11.2295C18.3378 10.4081 18.3378 9.59159 18.3202 8.77017C18.2658 6.21555 18.2386 4.93825 17.296 3.99205C16.3533 3.04586 15.0415 3.0129 12.4177 2.94698C10.8007 2.90635 9.1995 2.90635 7.58243 2.94697C4.95869 3.01289 3.64681 3.04585 2.70421 3.99205C1.7616 4.93824 1.73436 6.21555 1.67988 8.77017C1.66236 9.59159 1.66237 10.4081 1.67989 11.2295Z" stroke="white" stroke-width="1.25" stroke-linejoin="round"/>
</svg>
