<svg width="33" height="32" viewBox="0 0 33 32" fill="none" xmlns="http://www.w3.org/2000/svg">
<circle cx="16.5" cy="16" r="16" fill="#8B949E" fill-opacity="0.2"/>
<path d="M32.5 16C32.5 24.8366 25.3366 32 16.5 32C7.66344 32 0.5 24.8366 0.5 16C0.5 7.16344 7.66344 0 16.5 0C25.3366 0 32.5 7.16344 32.5 16ZM1.78 16C1.78 24.1296 8.37037 30.72 16.5 30.72C24.6296 30.72 31.22 24.1296 31.22 16C31.22 7.87037 24.6296 1.28 16.5 1.28C8.37037 1.28 1.78 7.87037 1.78 16Z" fill="#DADADA"/>
<path d="M17.6778 17.4645V25H14.3034V17.4645H11.5V14.409H14.3034V13.2973C14.3034 9.17012 15.9841 7 19.5402 7C20.6304 7 20.903 7.17973 21.5 7.32618V10.3484C20.8316 10.2286 20.6434 10.162 19.9491 10.162C19.1249 10.162 18.6836 10.4016 18.2813 10.8743C17.879 11.3469 17.6778 12.1657 17.6778 13.3373V14.4157H21.5L20.4747 17.4712H17.6778V17.4645Z" fill="#DADADA"/>
</svg>
