<svg width="20" height="20" viewBox="0 0 20 20" fill="none" xmlns="http://www.w3.org/2000/svg">
<path d="M4.62512 0.0594996C5.13861 0.164934 5.58086 0.427141 6.0067 0.722331C6.562 1.10125 7.17003 1.1488 7.82523 1.05681C8.21679 0.942561 8.57212 0.670014 8.91125 0.449438C9.36984 0.158852 9.88673 0.0234526 10.4255 0.0226802C10.4593 0.0217713 10.4931 0.0208624 10.5279 0.019926C10.7452 0.0189793 10.8647 0.0423 11.0308 0.185034C11.1679 0.35989 11.19 0.535646 11.1654 0.753271C11.1101 0.9172 10.9892 1.02749 10.8728 1.15133C10.002 2.08064 9.28295 3.2427 8.98982 4.48972C9.03814 4.488 9.08645 4.48628 9.13623 4.4845C9.2003 4.48311 9.26437 4.48176 9.32845 4.48044C9.36021 4.4792 9.39197 4.47796 9.4247 4.47667C9.6327 4.47347 9.75601 4.4938 9.91756 4.63816C10.0681 4.83197 10.0576 5.0335 10.0289 5.26902C9.94842 5.43889 9.86463 5.52528 9.6949 5.603C9.57316 5.61627 9.45304 5.61352 9.33076 5.60996C9.29797 5.60946 9.26518 5.60896 9.2314 5.60844C9.15086 5.60713 9.07034 5.60514 8.98982 5.603C9.19341 6.64847 9.66611 7.4425 10.3914 8.21342C10.4154 8.2389 10.4393 8.26439 10.464 8.29065C10.7515 8.59494 11.0489 8.88941 11.3463 9.18406C11.4565 9.29334 11.5667 9.40275 11.6768 9.51224C11.7013 9.53645 11.7258 9.56065 11.7511 9.58559C11.9147 9.74843 12.0678 9.9182 12.2183 10.0932C12.2535 10.133 12.2888 10.1728 12.3242 10.2124C13.0186 11.0002 14.1109 12.3598 14.1109 13.4702C14.1342 13.4701 14.1576 13.4699 14.1816 13.4698C14.7493 13.4665 15.317 13.464 15.8848 13.4625C16.1593 13.4617 16.4339 13.4607 16.7084 13.459C16.9478 13.4575 17.1871 13.4566 17.4264 13.4562C17.5531 13.456 17.6798 13.4556 17.8065 13.4545C17.948 13.4534 18.0896 13.4533 18.2311 13.4533C18.273 13.4528 18.3149 13.4523 18.358 13.4517C18.58 13.4529 18.7281 13.4595 18.898 13.6186C18.994 13.7539 19.0233 13.8458 19.0237 14.011C19.0243 14.0727 19.0243 14.0727 19.0249 14.1356C19.0247 14.1804 19.0245 14.2252 19.0243 14.2714C19.0247 14.3425 19.0247 14.3425 19.0251 14.4151C19.0258 14.545 19.0257 14.6749 19.0255 14.8048C19.0254 14.9133 19.0256 15.0219 19.0259 15.1304C19.0264 15.3865 19.0263 15.6427 19.0259 15.8988C19.0255 16.1628 19.026 16.4267 19.027 16.6907C19.0278 16.9176 19.0281 17.1445 19.0278 17.3714C19.0277 17.5068 19.0278 17.6422 19.0285 17.7776C19.0291 17.9286 19.0286 18.0796 19.028 18.2306C19.0283 18.2753 19.0287 18.32 19.0291 18.3661C19.0271 18.5933 19.0256 18.7525 18.8609 18.9253C18.7097 19.0382 18.5822 19.0525 18.3989 19.0506C18.3574 19.0508 18.3574 19.0508 18.3151 19.0511C18.2222 19.0515 18.1293 19.0511 18.0364 19.0507C17.9693 19.0509 17.9021 19.051 17.8349 19.0513C17.6501 19.0517 17.4653 19.0515 17.2805 19.0511C17.0812 19.0509 16.882 19.0513 16.6828 19.0516C16.2923 19.0521 15.9018 19.052 15.5113 19.0517C15.1938 19.0514 14.8764 19.0514 14.5589 19.0515C14.5137 19.0515 14.4686 19.0515 14.4221 19.0515C14.3303 19.0516 14.2386 19.0516 14.1469 19.0517C13.2861 19.052 12.4253 19.0516 11.5645 19.051C10.8262 19.0505 10.0879 19.0506 9.34957 19.0511C8.49235 19.0517 7.63512 19.0519 6.77789 19.0516C6.68641 19.0516 6.59493 19.0515 6.50345 19.0515C6.45844 19.0515 6.41343 19.0515 6.36706 19.0514C6.0502 19.0513 5.73334 19.0515 5.41648 19.0518C5.02999 19.0521 4.6435 19.052 4.25701 19.0514C4.05989 19.0511 3.86277 19.051 3.66565 19.0514C3.48499 19.0517 3.30433 19.0515 3.12367 19.0509C3.05851 19.0508 2.99335 19.0509 2.9282 19.0511C2.44774 19.053 1.9961 19.0191 1.56331 18.7884C1.53838 18.7755 1.51345 18.7625 1.48777 18.7491C0.78737 18.3756 0.306612 17.8139 0.0721202 17.0557C0.0192537 16.8553 0.00298838 16.6672 0.00181538 16.4601C0.00155508 16.4297 0.00129478 16.3993 0.0010266 16.368C0.000375571 16.2695 0.000141162 16.171 7.58767e-05 16.0725C3.83176e-05 16.0221 3.83177e-05 16.0221 0 15.9707C0.000616673 15.4508 0.022895 14.9469 0.120681 14.435C0.126852 14.4009 0.133023 14.3668 0.139381 14.3317C0.383353 13.0066 0.921189 11.7838 1.75349 10.7241C1.77784 10.6926 1.80219 10.661 1.82728 10.6286C1.98476 10.4275 2.15201 10.2375 2.32536 10.05C2.39762 9.97091 2.46779 9.89098 2.53757 9.80972C2.684 9.64219 2.83967 9.48542 2.99782 9.32902C3.02731 9.29966 3.0568 9.27031 3.08719 9.24007C3.21209 9.11577 3.33721 8.99169 3.46232 8.86759C3.55419 8.7764 3.64594 8.6851 3.73769 8.59379C3.76556 8.56622 3.79344 8.53865 3.82216 8.51024C3.99408 8.33911 4.15646 8.16237 4.31404 7.978C4.34533 7.94232 4.37661 7.90663 4.40884 7.86986C4.97409 7.20946 5.36636 6.46787 5.50154 5.603C5.45323 5.60472 5.40491 5.60645 5.35513 5.60822C5.29106 5.60961 5.22699 5.61096 5.16292 5.61228C5.13115 5.61352 5.09939 5.61477 5.06667 5.61605C4.85866 5.61925 4.73535 5.59893 4.57381 5.45457C4.42328 5.26076 4.43376 5.05922 4.46248 4.82371C4.54294 4.65384 4.62673 4.56744 4.79646 4.48972C4.91821 4.47646 5.03832 4.47921 5.1606 4.48276C5.20979 4.48352 5.20979 4.48352 5.25997 4.48429C5.3405 4.48559 5.42102 4.48759 5.50154 4.48972C5.16172 3.23705 4.5262 2.16985 3.65303 1.2125C3.32224 0.847073 3.32224 0.847073 3.31209 0.593237C3.33613 0.375596 3.39966 0.253613 3.57185 0.110815C3.83624 -0.0654461 4.32074 0.00926671 4.62512 0.0594996ZM5.68709 1.92917C5.71786 1.99072 5.74864 2.05227 5.77944 2.11382C5.80638 2.16774 5.83326 2.22168 5.86009 2.27566C5.9229 2.40186 5.98633 2.52739 6.05238 2.65194C6.35932 3.23651 6.52953 3.84342 6.65193 4.48972C7.04381 4.48972 7.43568 4.48972 7.83943 4.48972C7.86813 4.33818 7.86813 4.33818 7.89741 4.18357C8.01774 3.59426 8.226 3.04988 8.50726 2.51963C8.57113 2.39802 8.63186 2.27485 8.69295 2.15183C8.73006 2.07761 8.76717 2.00339 8.80428 1.92917C8.73654 1.95214 8.73654 1.95214 8.66743 1.97556C8.51939 2.02475 8.37095 2.07259 8.22212 2.11936C8.18294 2.1317 8.14377 2.14404 8.1034 2.15676C7.36729 2.3618 6.52034 2.26115 5.82886 1.95643C5.76198 1.92455 5.76198 1.92455 5.68709 1.92917ZM6.68904 5.603C6.63527 5.84471 6.63527 5.84471 6.58293 6.08673C6.39793 6.93663 6.03899 7.6662 5.50154 8.3491C5.47365 8.38488 5.44576 8.42066 5.41703 8.45753C5.00412 8.97423 4.53023 9.43585 4.06123 9.90073C3.94646 10.0145 3.83182 10.1284 3.71725 10.2424C3.69157 10.2678 3.6659 10.2931 3.63945 10.3193C3.4729 10.485 3.31672 10.6573 3.16365 10.8354C3.12802 10.8756 3.09233 10.9158 3.05653 10.9559C2.61691 11.454 2.24456 11.9895 1.93904 12.5796C1.92623 12.604 1.91342 12.6285 1.90023 12.6537C1.38164 13.6563 1.14574 14.7994 1.14599 15.9242C1.14583 16.0059 1.14447 16.0875 1.14307 16.1691C1.139 16.6746 1.26097 17.0601 1.60506 17.4409C2.19538 17.9533 2.87484 17.9344 3.61379 17.9317C3.69612 17.9317 3.77846 17.9317 3.86079 17.9318C4.08303 17.9318 4.30526 17.9314 4.5275 17.9308C4.76023 17.9304 4.99295 17.9303 5.22568 17.9302C5.61588 17.93 6.00608 17.9296 6.39629 17.9289C6.79797 17.9282 7.19965 17.9277 7.60133 17.9274C7.62614 17.9274 7.65096 17.9274 7.67652 17.9273C7.80102 17.9272 7.92552 17.9271 8.05002 17.9271C9.08073 17.9263 10.1114 17.925 11.1422 17.9233C11.1423 17.9023 11.1423 17.8812 11.1424 17.8595C11.1446 17.3469 11.1474 16.8343 11.1509 16.3217C11.1526 16.0738 11.154 15.8259 11.155 15.5781C11.156 15.3389 11.1575 15.0997 11.1594 14.8606C11.16 14.7692 11.1604 14.6779 11.1606 14.5866C11.161 14.4589 11.162 14.3311 11.1632 14.2034C11.1632 14.1655 11.1631 14.1277 11.1631 14.0887C11.1673 13.7675 11.1673 13.7675 11.2906 13.6186C11.4513 13.4839 11.6107 13.4899 11.8109 13.4883C11.8427 13.4876 11.8746 13.487 11.9074 13.4863C12.0087 13.4843 12.11 13.483 12.2114 13.4818C12.2803 13.4806 12.3491 13.4793 12.418 13.4779C12.5865 13.4748 12.7549 13.4723 12.9234 13.4702C12.802 13.1342 12.6792 12.8049 12.5106 12.4891C12.4933 12.4565 12.4759 12.4238 12.4581 12.3902C12.1789 11.876 11.8258 11.4208 11.439 10.9839C11.413 10.9542 11.387 10.9244 11.3602 10.8938C11.2762 10.7992 11.1908 10.7059 11.1051 10.6128C11.0869 10.593 11.0688 10.5731 11.0501 10.5527C10.7882 10.2675 10.5199 9.98919 10.2453 9.7162C10.2217 9.69274 10.1981 9.66928 10.1738 9.64511C10.0552 9.5272 9.93633 9.40956 9.81706 9.2923C9.56057 9.03896 9.32284 8.78241 9.10115 8.49753C9.06718 8.45555 9.03318 8.4136 8.9991 8.37171C8.40147 7.61223 7.96719 6.73205 7.85146 5.76391C7.84405 5.67657 7.84405 5.67657 7.80232 5.603C7.43494 5.603 7.06756 5.603 6.68904 5.603ZM12.2554 14.5835C12.2554 14.9509 12.2554 15.3182 12.2554 15.6968C14.1169 15.6968 15.9783 15.6968 17.8961 15.6968C17.8961 15.3294 17.8961 14.962 17.8961 14.5835C16.0347 14.5835 14.1733 14.5835 12.2554 14.5835ZM12.2554 16.81C12.2554 17.1774 12.2554 17.5448 12.2554 17.9233C14.1169 17.9233 15.9783 17.9233 17.8961 17.9233C17.8961 17.5559 17.8961 17.1885 17.8961 16.81C16.0347 16.81 14.1733 16.81 12.2554 16.81Z" fill="#8B949E"/>
<path d="M7.47188 9.01687C7.64347 9.09815 7.72064 9.18404 7.80586 9.35085C7.82191 9.45027 7.82191 9.45027 7.82485 9.55568C7.82617 9.59359 7.82748 9.6315 7.82884 9.67056C7.8301 9.72929 7.8301 9.72929 7.83138 9.78921C7.83264 9.82908 7.83391 9.86895 7.83522 9.91003C7.83827 10.0081 7.84084 10.1062 7.84297 10.2044C7.87977 10.2218 7.87977 10.2218 7.9173 10.2395C8.32224 10.4355 8.60968 10.6856 8.80782 11.095C8.8204 11.1203 8.83298 11.1457 8.84594 11.1718C8.92108 11.354 8.93134 11.5376 8.93538 11.7328C8.93663 11.7705 8.93663 11.7705 8.9379 11.809C8.93702 11.9966 8.89106 12.1032 8.77071 12.2454C8.5769 12.3959 8.37537 12.3854 8.13985 12.3567C7.96747 12.2751 7.89237 12.1894 7.80586 12.0227C7.7863 11.9429 7.76939 11.8624 7.75484 11.7815C7.71157 11.5792 7.67723 11.4756 7.50899 11.3548C7.37208 11.2863 7.21344 11.3047 7.06368 11.3177C6.94605 11.3652 6.89378 11.4112 6.81087 11.5055C6.73241 11.6996 6.73241 11.9005 6.81087 12.0946C6.97836 12.2852 7.16148 12.3034 7.39998 12.3312C7.88557 12.3992 8.25229 12.5826 8.58516 12.9505C8.82705 13.2757 8.94081 13.6135 8.9377 14.0174C8.93749 14.0497 8.93728 14.0821 8.93706 14.1154C8.92407 14.5886 8.73754 14.9417 8.41251 15.2775C8.29244 15.3891 8.16717 15.4641 8.01997 15.5359C7.98676 15.5522 7.95355 15.5685 7.91934 15.5853C7.88154 15.6037 7.88154 15.6037 7.84297 15.6223C7.84263 15.647 7.84228 15.6717 7.84192 15.6972C7.83992 15.8099 7.83682 15.9225 7.8337 16.0352C7.83317 16.074 7.83264 16.1129 7.8321 16.1529C7.82507 16.3751 7.81523 16.5282 7.65743 16.6985C7.46362 16.849 7.26208 16.8386 7.02657 16.8098C6.85498 16.7286 6.77781 16.6427 6.69258 16.4759C6.67654 16.3764 6.67654 16.3764 6.67359 16.271C6.67162 16.2142 6.67162 16.2142 6.66961 16.1561C6.66877 16.117 6.66793 16.0778 6.66707 16.0375C6.66517 15.9777 6.66517 15.9777 6.66323 15.9167C6.66018 15.8186 6.65761 15.7205 6.65547 15.6223C6.63094 15.6107 6.60642 15.5992 6.58115 15.5872C6.1762 15.3912 5.88876 15.1411 5.69063 14.7317C5.67176 14.6937 5.67176 14.6937 5.6525 14.6549C5.57736 14.4727 5.56711 14.2892 5.56307 14.0939C5.56223 14.0688 5.5614 14.0436 5.56055 14.0177C5.56142 13.8301 5.60739 13.7235 5.72774 13.5813C5.92155 13.4308 6.12308 13.4413 6.3586 13.47C6.53097 13.5516 6.60608 13.6373 6.69258 13.804C6.71214 13.8838 6.72906 13.9643 6.74361 14.0452C6.78687 14.2475 6.82121 14.3512 6.98946 14.4719C7.12637 14.5404 7.28501 14.522 7.43477 14.5091C7.55239 14.4615 7.60466 14.4155 7.68758 14.3212C7.76604 14.1271 7.76604 13.9262 7.68758 13.7321C7.53958 13.5637 7.39307 13.5307 7.175 13.5117C6.66061 13.4547 6.22189 13.2486 5.89154 12.8426C5.58469 12.3883 5.53123 11.9644 5.5793 11.429C5.6745 11.0038 5.92762 10.6394 6.28438 10.3899C6.34845 10.3557 6.41319 10.3226 6.47848 10.2908C6.51169 10.2745 6.54489 10.2582 6.57911 10.2414C6.60431 10.2292 6.62951 10.217 6.65547 10.2044C6.65582 10.1797 6.65617 10.155 6.65652 10.1296C6.65853 10.0169 6.66163 9.9042 6.66475 9.79153C6.66554 9.73326 6.66554 9.73326 6.66634 9.67382C6.67338 9.45165 6.68321 9.29852 6.84102 9.1282C7.03483 8.97767 7.23636 8.98815 7.47188 9.01687Z" fill="#8B949E"/>
<path d="M5 8L9 8" stroke="#8B949E" stroke-linecap="round" stroke-linejoin="round"/>
</svg>
