<svg width="24" height="24" viewBox="0 0 24 24" fill="none" xmlns="http://www.w3.org/2000/svg">
<path d="M21.5604 9.95496H20.775V9.9145H12V13.8145H17.5102C16.7063 16.0848 14.5462 17.7145 12 17.7145C8.76934 17.7145 6.15 15.0952 6.15 11.8645C6.15 8.63384 8.76934 6.0145 12 6.0145C13.4913 6.0145 14.848 6.57708 15.881 7.49601L18.6388 4.73823C16.8974 3.11534 14.5682 2.1145 12 2.1145C6.61556 2.1145 2.25 6.48006 2.25 11.8645C2.25 17.2489 6.61556 21.6145 12 21.6145C17.3844 21.6145 21.75 17.2489 21.75 11.8645C21.75 11.2108 21.6827 10.5726 21.5604 9.95496Z" fill="#FFC107"/>
<path d="M3.37476 7.32636L6.57812 9.67563C7.44489 7.52965 9.54407 6.0145 12.0006 6.0145C13.4918 6.0145 14.8486 6.57708 15.8816 7.49601L18.6394 4.73823C16.898 3.11534 14.5687 2.1145 12.0006 2.1145C8.25561 2.1145 5.00788 4.22879 3.37476 7.32636Z" fill="#FF3D00"/>
<path d="M11.9993 21.614C14.5177 21.614 16.806 20.6502 18.5362 19.0829L15.5185 16.5294C14.5068 17.2988 13.2704 17.715 11.9993 17.714C9.4633 17.714 7.31001 16.097 6.49881 13.8403L3.31934 16.29C4.93296 19.4476 8.20994 21.614 11.9993 21.614Z" fill="#4CAF50"/>
<path d="M21.5604 9.95526H20.775V9.91479H12V13.8148H17.5102C17.1257 14.8953 16.433 15.8395 15.5178 16.5307L15.5193 16.5297L18.5369 19.0832C18.3234 19.2772 21.75 16.7398 21.75 11.8648C21.75 11.2111 21.6827 10.5729 21.5604 9.95526Z" fill="#1976D2"/>
</svg>
