<svg width="25" height="24" viewBox="0 0 25 24" fill="none" xmlns="http://www.w3.org/2000/svg">
<path d="M14.2866 8.33057V6.33057C14.2866 5.80013 14.0759 5.29143 13.7008 4.91635C13.3258 4.54128 12.8171 4.33057 12.2866 4.33057H5.28662C4.75619 4.33057 4.24748 4.54128 3.87241 4.91635C3.49733 5.29143 3.28662 5.80013 3.28662 6.33057V18.3306C3.28662 18.861 3.49733 19.3697 3.87241 19.7448C4.24748 20.1199 4.75619 20.3306 5.28662 20.3306H12.2866C12.8171 20.3306 13.3258 20.1199 13.7008 19.7448C14.0759 19.3697 14.2866 18.861 14.2866 18.3306V16.3306" stroke="#FF3E70" stroke-width="1.5" stroke-linecap="round" stroke-linejoin="round"/>
<path d="M9.28662 12.3306H21.2866M21.2866 12.3306L18.2866 9.33057M21.2866 12.3306L18.2866 15.3306" stroke="#FF3E70" stroke-width="1.5" stroke-linecap="round" stroke-linejoin="round"/>
</svg>
