<svg width="20" height="21" viewBox="0 0 20 21" fill="none" xmlns="http://www.w3.org/2000/svg">
<path d="M19.174 16.0558C18.0799 14.3768 17.4888 12.4569 17.4617 10.4947V7.07638C17.4617 5.25775 16.6837 3.51361 15.2988 2.22765C13.9139 0.941685 12.0356 0.219238 10.0771 0.219238C8.11858 0.219238 6.24027 0.941685 4.85539 2.22765C3.4705 3.51361 2.69248 5.25775 2.69248 7.07638V10.4895C2.66637 12.4535 2.07518 14.3753 0.980175 16.0558C0.895409 16.1858 0.849377 16.3344 0.846795 16.4863C0.844213 16.6382 0.885173 16.7881 0.96548 16.9205C1.04579 17.0528 1.16255 17.163 1.30382 17.2397C1.44508 17.3164 1.60576 17.3569 1.76941 17.357H18.3848C18.5484 17.3569 18.7091 17.3164 18.8504 17.2397C18.9916 17.163 19.1084 17.0528 19.1887 16.9205C19.269 16.7881 19.31 16.6382 19.3074 16.4863C19.3048 16.3344 19.2588 16.1858 19.174 16.0558Z" fill="white"/>
<path d="M11.0064 20.6356C11.3933 20.5076 11.7447 20.3012 12.0351 20.0316C12.3255 19.7619 12.5476 19.4357 12.6855 19.0764H7.46826C7.59032 19.3945 7.77867 19.6872 8.02254 19.9377C8.26641 20.1882 8.56103 20.3917 8.88958 20.5364C9.21813 20.6812 9.57417 20.7645 9.93738 20.7815C10.3006 20.7985 10.6638 20.7489 11.0064 20.6356Z" fill="white"/>
</svg>
