<svg width="25" height="25" viewBox="0 0 25 25" fill="none" xmlns="http://www.w3.org/2000/svg">
<path d="M6.88662 7.70718L9.38662 10.2072C9.48662 10.3072 9.58662 10.3072 9.78662 10.3072C9.88662 10.3072 10.0866 10.2072 10.1866 10.2072C10.3866 10.0072 10.3866 9.70718 10.1866 9.50718L8.48662 7.80718H16.0866L14.4866 9.40718C14.3866 9.50718 14.2866 9.70718 14.2866 9.80718C14.2866 10.1072 14.4866 10.3072 14.7866 10.3072C14.8866 10.3072 15.0866 10.2072 15.1866 10.2072L17.6866 7.70718C17.8866 7.50718 17.8866 7.20718 17.6866 7.00718L15.1866 4.50718C14.9866 4.30718 14.6866 4.30718 14.4866 4.50718C14.2866 4.70718 14.2866 5.00718 14.4866 5.20718L16.0866 6.80718H8.48662L10.0866 5.20718C10.2866 5.00718 10.2866 4.70718 10.0866 4.50718C9.88662 4.30718 9.58662 4.30718 9.38662 4.50718L6.88662 6.90718C6.88662 6.90718 6.78662 7.00718 6.78662 7.10718V7.50718C6.78662 7.60718 6.88662 7.60718 6.88662 7.70718ZM8.18662 16.7072C8.98662 16.1072 9.58662 15.2072 9.58662 14.1072C9.48662 12.3072 8.08662 10.8072 6.28662 10.8072C4.48662 10.8072 3.08662 12.3072 3.08662 14.0072C3.08662 15.1072 3.58662 16.0072 4.48662 16.6072C2.58662 17.4072 1.28662 19.2072 1.28662 21.3072C1.28662 21.6072 1.48662 21.8072 1.78662 21.8072C2.08662 21.8072 2.28662 21.6072 2.28662 21.3072C2.28662 19.1072 4.08662 17.3072 6.28662 17.3072C8.48662 17.3072 10.2866 19.1072 10.2866 21.3072C10.2866 21.6072 10.4866 21.8072 10.7866 21.8072C11.0866 21.8072 11.2866 21.6072 11.2866 21.3072C11.2866 19.2072 9.98662 17.4072 8.18662 16.7072ZM6.28662 16.3072C5.08662 16.3072 4.08662 15.3072 4.08662 14.1072C4.08662 12.9072 5.08662 11.8072 6.28662 11.8072C7.48662 11.8072 8.48662 12.8072 8.48662 14.0072C8.48662 15.3072 7.48662 16.3072 6.28662 16.3072ZM20.1866 16.7072C20.9866 16.1072 21.5866 15.2072 21.5866 14.1072C21.5866 12.3072 20.0866 10.9072 18.3866 10.9072C16.6866 10.9072 15.1866 12.4072 15.1866 14.1072C15.1866 15.2072 15.6866 16.1072 16.5866 16.7072C14.7866 17.4072 13.4866 19.2072 13.4866 21.3072C13.4866 21.6072 13.6866 21.8072 13.9866 21.8072C14.2866 21.8072 14.4866 21.6072 14.4866 21.3072C14.4866 19.1072 16.2866 17.3072 18.4866 17.3072C20.6866 17.3072 22.4866 19.1072 22.4866 21.3072C22.4866 21.6072 22.6866 21.8072 22.9866 21.8072C23.2866 21.8072 23.4866 21.6072 23.4866 21.3072C23.2866 19.2072 21.9866 17.4072 20.1866 16.7072ZM18.2866 16.3072C17.0866 16.3072 16.0866 15.3072 16.0866 14.1072C16.0866 12.9072 17.0866 11.9072 18.2866 11.9072C19.4866 11.9072 20.4866 12.9072 20.4866 14.1072C20.4866 15.3072 19.4866 16.3072 18.2866 16.3072Z" fill="#9C9C9C"/>
</svg>
