<svg width="20" height="20" viewBox="0 0 20 20" fill="none" xmlns="http://www.w3.org/2000/svg">
<path d="M4.0522 15.2647C4.22518 16.5496 5.28937 17.5561 6.58439 17.6157C7.67409 17.6657 8.78104 17.6919 10 17.6919C11.219 17.6919 12.326 17.6657 13.4157 17.6157C14.7107 17.5561 15.7749 16.5496 15.9479 15.2647C16.0608 14.4263 16.1539 13.567 16.1539 12.6919C16.1539 11.8168 16.0608 10.9575 15.9479 10.119C15.7749 8.8342 14.7107 7.82766 13.4157 7.76812C12.326 7.71803 11.219 7.69189 10 7.69189C8.78104 7.69189 7.67409 7.71803 6.58439 7.76812C5.28937 7.82766 4.22518 8.8342 4.0522 10.119C3.93931 10.9575 3.84619 11.8168 3.84619 12.6919C3.84619 13.567 3.93931 14.4263 4.0522 15.2647Z" stroke="white" stroke-width="1.15385"/>
<path d="M6.53857 7.69223V5.76916C6.53857 3.8574 8.08836 2.30762 10.0001 2.30762C11.9119 2.30762 13.4617 3.8574 13.4617 5.76916V7.69223" stroke="white" stroke-width="1.15385" stroke-linecap="round" stroke-linejoin="round"/>
<path d="M13.0769 12.6846V12.6923" stroke="white" stroke-width="1.53846" stroke-linecap="round" stroke-linejoin="round"/>
<path d="M10 12.6846V12.6923" stroke="white" stroke-width="1.53846" stroke-linecap="round" stroke-linejoin="round"/>
<path d="M6.9231 12.6846V12.6923" stroke="white" stroke-width="1.53846" stroke-linecap="round" stroke-linejoin="round"/>
</svg>
