<svg width="101" height="100" viewBox="0 0 101 100" fill="none" xmlns="http://www.w3.org/2000/svg">
<g clip-path="url(#clip0_57_5672)">
<path d="M40.4998 76.6667C39.1782 76.6667 37.9048 76.1434 36.9648 75.2017L23.6315 61.8684C21.6782 59.9167 21.6782 56.7501 23.6315 54.7984C25.5832 52.8451 28.7498 52.8451 30.7015 54.7984L39.9582 64.0551L66.4982 28.6667C68.1582 26.4567 71.2948 26.0117 73.4982 27.6667C75.7082 29.3234 76.1565 32.4584 74.4998 34.6667L44.4998 74.6667C43.6315 75.8267 42.2998 76.5517 40.8548 76.6534C40.7365 76.6617 40.6165 76.6667 40.4998 76.6667Z" fill="#FCD331"/>
<path d="M10.5 51.6666H2.16667C1.245 51.6666 0.5 50.9216 0.5 49.9999C0.5 49.0783 1.245 48.3333 2.16667 48.3333H10.5C11.4217 48.3333 12.1667 49.0783 12.1667 49.9999C12.1667 50.9216 11.4217 51.6666 10.5 51.6666Z" fill="#FCD331" fill-opacity="0.2"/>
<path d="M8.64493 75.8334C8.06826 75.8334 7.50826 75.5351 7.19993 75.0001C6.73993 74.2017 7.01326 73.1834 7.80993 72.7234L15.0266 68.5567C15.8216 68.0984 16.8416 68.3684 17.3033 69.1667C17.7633 69.9651 17.4899 70.9834 16.6933 71.4434L9.4766 75.6101C9.21493 75.7617 8.92826 75.8334 8.64493 75.8334Z" fill="#FCD331" fill-opacity="0.2"/>
<path d="M26.3317 93.5233C26.0483 93.5233 25.7617 93.4516 25.5 93.3C24.7017 92.84 24.4283 91.82 24.89 91.0233L29.0567 83.8066C29.5183 83.0083 30.5367 82.735 31.3333 83.1966C32.13 83.6583 32.405 84.6766 31.9433 85.4733L27.7767 92.69C27.4667 93.2233 26.9083 93.5233 26.3317 93.5233Z" fill="#FCD331" fill-opacity="0.2"/>
<path d="M50.4997 99.9999C49.578 99.9999 48.833 99.2549 48.833 98.3333V89.9999C48.833 89.0783 49.578 88.3333 50.4997 88.3333C51.4213 88.3333 52.1663 89.0783 52.1663 89.9999V98.3333C52.1663 99.2549 51.4213 99.9999 50.4997 99.9999Z" fill="#FCD331" fill-opacity="0.2"/>
<path d="M74.668 93.5233C74.0914 93.5233 73.5314 93.225 73.223 92.69L69.0564 85.4733C68.5964 84.675 68.8697 83.6566 69.6664 83.1966C70.4597 82.7366 71.4814 83.0083 71.943 83.8066L76.1097 91.0233C76.5697 91.8216 76.2964 92.84 75.4997 93.3C75.238 93.4516 74.9514 93.5233 74.668 93.5233Z" fill="#FCD331" fill-opacity="0.2"/>
<path d="M92.3555 75.8334C92.0721 75.8334 91.7855 75.7617 91.5238 75.6101L84.3071 71.4434C83.5088 70.9834 83.2355 69.9634 83.6971 69.1667C84.1571 68.3684 85.1788 68.0967 85.9738 68.5567L93.1905 72.7234C93.9888 73.1834 94.2621 74.2034 93.8005 75.0001C93.4905 75.5351 92.9321 75.8334 92.3555 75.8334Z" fill="#FCD331" fill-opacity="0.2"/>
<path d="M98.833 51.6666H90.4997C89.578 51.6666 88.833 50.9216 88.833 49.9999C88.833 49.0783 89.578 48.3333 90.4997 48.3333H98.833C99.7547 48.3333 100.5 49.0783 100.5 49.9999C100.5 50.9216 99.7547 51.6666 98.833 51.6666Z" fill="#FCD331" fill-opacity="0.2"/>
<path d="M85.142 31.6667C84.5653 31.6667 84.0053 31.3683 83.697 30.8333C83.237 30.035 83.5103 29.0167 84.307 28.5567L91.5237 24.39C92.3187 23.9283 93.3403 24.2017 93.8003 25C94.2603 25.7983 93.987 26.8167 93.1903 27.2767L85.9737 31.4433C85.712 31.595 85.4253 31.6667 85.142 31.6667Z" fill="#FCD331" fill-opacity="0.2"/>
<path d="M70.4982 17.0267C70.2148 17.0267 69.9282 16.9551 69.6665 16.8034C68.8682 16.3434 68.5948 15.3234 69.0565 14.5267L73.2232 7.31006C73.6832 6.51173 74.7032 6.23839 75.4998 6.70006C76.2965 7.16173 76.5715 8.18006 76.1098 8.97673L71.9432 16.1934C71.6332 16.7267 71.0748 17.0267 70.4982 17.0267Z" fill="#FCD331" fill-opacity="0.2"/>
<path d="M50.4997 11.6667C49.578 11.6667 48.833 10.9217 48.833 10V1.66667C48.833 0.745 49.578 0 50.4997 0C51.4213 0 52.1663 0.745 52.1663 1.66667V10C52.1663 10.9217 51.4213 11.6667 50.4997 11.6667Z" fill="#FCD331" fill-opacity="0.2"/>
<path d="M30.5015 17.0267C29.9249 17.0267 29.3649 16.7284 29.0565 16.1934L24.8899 8.97672C24.4299 8.17838 24.7032 7.16005 25.4999 6.70005C26.2949 6.24005 27.3165 6.51172 27.7765 7.31005L31.9432 14.5267C32.4032 15.325 32.1299 16.3434 31.3332 16.8034C31.0715 16.955 30.7849 17.0267 30.5015 17.0267Z" fill="#FCD331" fill-opacity="0.2"/>
<path d="M15.8584 31.6667C15.5751 31.6667 15.2884 31.595 15.0267 31.4433L7.81006 27.2767C7.01173 26.8167 6.73839 25.7967 7.20006 25C7.66006 24.2017 8.68006 23.9267 9.47673 24.39L16.6934 28.5567C17.4917 29.0167 17.7651 30.0367 17.3034 30.8333C16.9934 31.3683 16.4351 31.6667 15.8584 31.6667Z" fill="#FCD331" fill-opacity="0.2"/>
</g>
<defs>
<clipPath id="clip0_57_5672">
<rect width="100" height="100" fill="white" transform="translate(0.5)"/>
</clipPath>
</defs>
</svg>
