<svg width="15" height="15" viewBox="0 0 15 15" fill="none" xmlns="http://www.w3.org/2000/svg">
<path d="M7.20573 9.78004H7.78906V7.04479L9.01406 8.26337L9.42706 7.85037L7.4974 5.9207L5.56773 7.85037L5.98073 8.26337L7.20573 7.04479V9.78004ZM4.94006 12.517C4.67134 12.517 4.44715 12.4272 4.26748 12.2475C4.08781 12.0679 3.99778 11.8435 3.9974 11.5744V4.35037H3.41406V3.76704H5.7474V3.31787H9.2474V3.76704H11.5807V4.35037H10.9974V11.575C10.9974 11.8433 10.9076 12.0675 10.7279 12.2475C10.5482 12.4276 10.3238 12.5174 10.0547 12.517H4.94006ZM10.4141 4.35037H4.58073V11.575C4.58073 11.6644 4.61806 11.7466 4.69273 11.8217C4.7674 11.8968 4.84965 11.9341 4.93948 11.9337H10.0553C10.1448 11.9337 10.227 11.8964 10.3021 11.8217C10.3771 11.747 10.4145 11.6648 10.4141 11.575V4.35037Z" fill="#ECF6FF"/>
</svg>
