<svg width="15" height="15" viewBox="0 0 15 15" fill="none" xmlns="http://www.w3.org/2000/svg">
<path d="M8.91766 11.214C9.02849 11.214 9.13932 11.1732 9.22682 11.0857L12.7677 7.54482C12.9368 7.37565 12.9368 7.09565 12.7677 6.92649L9.22682 3.38566C9.05766 3.2165 8.77766 3.2165 8.60851 3.38566C8.43935 3.55483 8.43935 3.83483 8.60851 4.004L11.8402 7.23565L8.60851 10.4673C8.43935 10.6365 8.43935 10.9165 8.60851 11.0857C8.69016 11.1732 8.80682 11.214 8.91766 11.214Z" fill="#0D1117"/>
<path d="M2.54189 7.67285H12.3594C12.5985 7.67285 12.7969 7.47452 12.7969 7.23535C12.7969 6.99618 12.5985 6.79785 12.3594 6.79785H2.54189C2.30272 6.79785 2.10439 6.99618 2.10439 7.23535C2.10439 7.47452 2.30272 7.67285 2.54189 7.67285Z" fill="#0D1117"/>
</svg>
