<svg width="25" height="25" viewBox="0 0 25 25" fill="none" xmlns="http://www.w3.org/2000/svg">
<g clip-path="url(#clip0_283_5106)">
<path d="M2.78662 5.95713V1.55713M2.78662 10.9571V13.9571M8.28662 13.5571V10.5571M8.28662 20.0571V24.0571M15.0866 18.6571V22.6571M17.5366 7.65713L20.5366 4.05713M20.5366 4.05713L23.5366 7.65713M20.5366 4.05713V19.6571M4.53662 9.95713C4.53662 10.5571 4.13662 10.9571 3.53662 10.9571H2.03662C1.43662 10.9571 1.03662 10.5571 1.03662 9.95713V6.95713C1.03662 6.35713 1.43662 5.95713 2.03662 5.95713H3.53662C4.13662 5.95713 4.53662 6.35713 4.53662 6.95713V9.95713ZM10.0366 19.0571C10.0366 19.6571 9.63662 20.0571 9.03662 20.0571H7.53662C6.93662 20.0571 6.53662 19.6571 6.53662 19.0571V14.5571C6.53662 13.9571 6.93662 13.5571 7.53662 13.5571H9.03662C9.63662 13.5571 10.0366 13.9571 10.0366 14.5571V19.0571ZM16.8366 17.6571C16.8366 18.2571 16.4366 18.6571 15.8366 18.6571H14.3366C13.7366 18.6571 13.3366 18.2571 13.3366 17.6571V13.6571C13.3366 13.0571 13.7366 12.6571 14.3366 12.6571H15.8366C16.4366 12.6571 16.8366 13.0571 16.8366 13.6571V17.6571Z" stroke="#9C9C9C" stroke-width="1.5" stroke-miterlimit="10" stroke-linecap="round" stroke-linejoin="round"/>
</g>
<defs>
<clipPath id="clip0_283_5106">
<rect width="24" height="24" fill="white" transform="translate(0.362793 0.476562)"/>
</clipPath>
</defs>
</svg>
