<svg width="25" height="24" viewBox="0 0 25 24" fill="none" xmlns="http://www.w3.org/2000/svg">
<path d="M12.2866 18.3306C11.7627 18.3307 11.2551 18.148 10.8514 17.8139C10.4478 17.4798 10.1734 17.0153 10.0756 16.5006C8.60431 16.0459 7.30864 15.1493 6.36462 13.9326C5.65195 13.0148 5.16226 11.9441 4.93417 10.8047C4.70609 9.66538 4.74585 8.48862 5.05032 7.36727C5.35479 6.24592 5.91564 5.21064 6.68864 4.34311C7.46163 3.47558 8.42563 2.79951 9.50458 2.36825C10.5835 1.93698 11.7479 1.7623 12.9059 1.858C14.0639 1.95369 15.1839 2.31714 16.1774 2.91968C17.1709 3.52221 18.0109 4.34735 18.631 5.33C19.2511 6.31266 19.6344 7.42595 19.7506 8.58208C19.7911 8.99458 19.4506 9.33058 19.0366 9.33058C18.6226 9.33058 18.2911 8.99308 18.2416 8.58208C18.1077 7.52132 17.6929 6.51561 17.0399 5.669C16.3869 4.82238 15.5196 4.16563 14.5277 3.76668C13.5357 3.36774 12.4552 3.2411 11.3979 3.39987C10.3405 3.55864 9.34486 3.99705 8.51383 4.66973C7.6828 5.34242 7.04661 6.22495 6.67109 7.226C6.29558 8.22705 6.19437 9.31026 6.37795 10.3636C6.56152 11.4168 7.02321 12.4019 7.71525 13.2169C8.40728 14.0319 9.30452 14.6472 10.3141 14.9991C10.505 14.6509 10.7846 14.3594 11.1246 14.1542C11.4646 13.949 11.8528 13.8375 12.2499 13.8309C12.6469 13.8243 13.0386 13.9229 13.3852 14.1167C13.7318 14.3105 14.0209 14.5926 14.2232 14.9343C14.4256 15.276 14.5338 15.6651 14.5371 16.0622C14.5403 16.4593 14.4384 16.8501 14.2417 17.1951C14.045 17.5401 13.7605 17.8268 13.4172 18.0262C13.0738 18.2257 12.6837 18.3307 12.2866 18.3306ZM6.28662 16.0806V16.0401C5.87647 15.6727 5.5009 15.2685 5.16462 14.8326C4.91819 15.2021 4.78667 15.6364 4.78662 16.0806V16.8306C4.78662 19.7871 7.57662 22.8306 12.2866 22.8306C16.9966 22.8306 19.7866 19.7871 19.7866 16.8306V16.0806C19.7866 15.4838 19.5496 14.9115 19.1276 14.4896C18.7057 14.0676 18.1334 13.8306 17.5366 13.8306H15.2866C15.6151 14.2656 15.8491 14.7756 15.9616 15.3306H17.5366C17.7355 15.3306 17.9263 15.4096 18.067 15.5502C18.2076 15.6909 18.2866 15.8817 18.2866 16.0806V16.8306C18.2866 18.9876 16.1386 21.3306 12.2866 21.3306C8.43462 21.3306 6.28662 18.9876 6.28662 16.8306V16.0806ZM12.2866 12.3306C11.4283 12.3305 10.596 12.6249 9.92862 13.1646C9.27281 12.7628 8.73134 12.1991 8.35623 11.5277C7.98112 10.8563 7.78497 10.0997 7.78662 9.33058C7.78684 8.54604 7.99216 7.7752 8.38222 7.09451C8.77228 6.41381 9.33352 5.84692 10.0103 5.45006C10.687 5.0532 11.4558 4.84016 12.2403 4.83208C13.0248 4.824 13.7977 5.02115 14.4825 5.40399C15.1673 5.78682 15.7401 6.34203 16.1441 7.01454C16.5481 7.68705 16.7693 8.4535 16.7856 9.23786C16.802 10.0222 16.6131 10.7972 16.2375 11.486C15.8619 12.1748 15.3128 12.7535 14.6446 13.1646C13.9772 12.6249 13.1449 12.3305 12.2866 12.3306ZM9.28662 9.33058C9.28662 10.1262 9.60269 10.8893 10.1653 11.4519C10.7279 12.0145 11.491 12.3306 12.2866 12.3306C13.0823 12.3306 13.8453 12.0145 14.4079 11.4519C14.9705 10.8893 15.2866 10.1262 15.2866 9.33058C15.2866 8.53493 14.9705 7.77186 14.4079 7.20925C13.8453 6.64665 13.0823 6.33057 12.2866 6.33057C11.491 6.33057 10.7279 6.64665 10.1653 7.20925C9.60269 7.77186 9.28662 8.53493 9.28662 9.33058Z" fill="#9C9C9C"/>
</svg>
