<svg width="33" height="32" viewBox="0 0 33 32" fill="none" xmlns="http://www.w3.org/2000/svg">
<circle cx="16.5" cy="16" r="16" fill="#8B949E" fill-opacity="0.2"/>
<path d="M32.5 16C32.5 24.8366 25.3366 32 16.5 32C7.66344 32 0.5 24.8366 0.5 16C0.5 7.16344 7.66344 0 16.5 0C25.3366 0 32.5 7.16344 32.5 16ZM1.78 16C1.78 24.1296 8.37037 30.72 16.5 30.72C24.6296 30.72 31.22 24.1296 31.22 16C31.22 7.87037 24.6296 1.28 16.5 1.28C8.37037 1.28 1.78 7.87037 1.78 16Z" fill="#DADADA"/>
<path fill-rule="evenodd" clip-rule="evenodd" d="M8.73741 15.4574C13.5692 13.3406 16.7912 11.945 18.4033 11.2707C23.0063 9.34558 23.9627 9.01116 24.5861 9.00012C24.7232 8.99769 25.0298 9.03186 25.2284 9.19389C25.3961 9.33071 25.4422 9.51553 25.4643 9.64524C25.4864 9.77496 25.5139 10.0705 25.492 10.3014C25.2426 12.9367 24.1633 19.3322 23.6142 22.2838C23.3818 23.5328 22.9244 23.9516 22.4815 23.9926C21.5189 24.0816 20.788 23.3529 19.8558 22.7384C18.397 21.7769 17.5729 21.1783 16.1569 20.24C14.5205 19.1556 15.5813 18.5596 16.5139 17.5856C16.758 17.3307 20.9988 13.4519 21.0809 13.1C21.0912 13.056 21.1007 12.892 21.0038 12.8053C20.9069 12.7187 20.7639 12.7483 20.6606 12.7719C20.5143 12.8053 18.1839 14.3542 13.6694 17.4185C13.0079 17.8753 12.4087 18.0978 11.8719 18.0862C11.2801 18.0733 10.1417 17.7497 9.29548 17.4731C8.25749 17.1338 7.43252 16.9544 7.50436 16.3782C7.54178 16.0781 7.95279 15.7712 8.73741 15.4574Z" fill="#DADADA"/>
</svg>
