<svg width="14" height="15" viewBox="0 0 14 15" fill="none" xmlns="http://www.w3.org/2000/svg">
<path fill-rule="evenodd" clip-rule="evenodd" d="M1.1665 8.11087C0.943379 8.13143 0.733378 8.229 0.573253 8.38869C0.393003 8.56938 0.291504 8.81438 0.291504 9.06944V11.5194C0.291504 11.7745 0.393003 12.0195 0.573253 12.2002C0.733378 12.3599 0.943379 12.4574 1.1665 12.478V13.3569C1.1665 13.5984 1.3625 13.7944 1.604 13.7944C1.8455 13.7944 2.0415 13.5984 2.0415 13.3569V12.478C2.26463 12.4574 2.47463 12.3599 2.63476 12.2002C2.81501 12.0195 2.9165 11.7745 2.9165 11.5194V9.06944C2.9165 8.81438 2.81501 8.56938 2.63476 8.38869C2.47463 8.229 2.26463 8.13143 2.0415 8.11087V7.23193C2.0415 6.99043 1.8455 6.79443 1.604 6.79443C1.3625 6.79443 1.1665 6.99043 1.1665 7.23193V8.11087Z" fill="#191919"/>
<path fill-rule="evenodd" clip-rule="evenodd" d="M8.1665 6.36087C7.94338 6.38143 7.73338 6.479 7.57325 6.63869C7.393 6.81938 7.2915 7.06438 7.2915 7.31944V11.0819C7.2915 11.337 7.393 11.582 7.57325 11.7627C7.73338 11.9224 7.94338 12.0199 8.1665 12.0405V12.9194C8.1665 13.1609 8.3625 13.3569 8.604 13.3569C8.8455 13.3569 9.0415 13.1609 9.0415 12.9194V12.0405C9.26463 12.0199 9.47463 11.9224 9.63476 11.7627C9.81501 11.582 9.9165 11.337 9.9165 11.0819V7.31944C9.9165 7.06438 9.81501 6.81938 9.63476 6.63869C9.47463 6.479 9.26463 6.38143 9.0415 6.36087V5.48193C9.0415 5.24043 8.8455 5.04443 8.604 5.04443C8.3625 5.04443 8.1665 5.24043 8.1665 5.48193V6.36087Z" fill="#191919"/>
<path fill-rule="evenodd" clip-rule="evenodd" d="M4.6665 2.27762C4.44338 2.29818 4.23338 2.39575 4.07325 2.55544C3.893 2.73612 3.7915 2.98112 3.7915 3.23619V7.43618C3.7915 7.69124 3.893 7.93624 4.07325 8.11693C4.23338 8.27661 4.44338 8.37418 4.6665 8.39474V9.27368C4.6665 9.51518 4.8625 9.71118 5.104 9.71118C5.3455 9.71118 5.5415 9.51518 5.5415 9.27368V8.39474C5.76463 8.37418 5.97463 8.27661 6.13476 8.11693C6.31501 7.93624 6.4165 7.69124 6.4165 7.43618V3.23619C6.4165 2.98112 6.31501 2.73612 6.13476 2.55544C5.97463 2.39575 5.76463 2.29818 5.5415 2.27762V1.39868C5.5415 1.15718 5.3455 0.961182 5.104 0.961182C4.8625 0.961182 4.6665 1.15718 4.6665 1.39868V2.27762Z" fill="#191919"/>
<path fill-rule="evenodd" clip-rule="evenodd" d="M11.6665 4.31937C11.1761 4.36356 10.7915 4.77569 10.7915 5.27794V10.3529C10.7915 10.8552 11.1761 11.2673 11.6665 11.3115V12.1904C11.6665 12.4319 11.8625 12.6279 12.104 12.6279C12.3455 12.6279 12.5415 12.4319 12.5415 12.1904V11.3115C13.0319 11.2673 13.4165 10.8552 13.4165 10.3529V5.27794C13.4165 4.77569 13.0319 4.36356 12.5415 4.31937V3.44043C12.5415 3.19893 12.3455 3.00293 12.104 3.00293C11.8625 3.00293 11.6665 3.19893 11.6665 3.44043V4.31937Z" fill="#191919"/>
</svg>
