<svg width="14" height="15" viewBox="0 0 14 15" fill="none" xmlns="http://www.w3.org/2000/svg">
<path d="M1.60435 5.34194C1.60435 5.23111 1.64518 5.12027 1.73268 5.03277L4.65518 2.11027C4.82435 1.94111 5.10435 1.94111 5.27352 2.11027C5.44268 2.27944 5.44268 2.55944 5.27352 2.72861L2.35102 5.65111C2.18185 5.82027 1.90185 5.82027 1.73268 5.65111C1.65102 5.56361 1.60435 5.45277 1.60435 5.34194Z" fill="white"/>
<path d="M1.60433 5.34204C1.60433 5.10287 1.80266 4.90454 2.04183 4.90454H11.9585C12.1977 4.90454 12.396 5.10287 12.396 5.34204C12.396 5.58121 12.1977 5.77954 11.9585 5.77954H2.04183C1.80266 5.77954 1.60433 5.58121 1.60433 5.34204Z" fill="white"/>
<path d="M8.598 11.7587C8.598 11.6479 8.63883 11.537 8.72633 11.4495L11.6488 8.52702C11.818 8.35785 12.098 8.35785 12.2672 8.52702C12.4363 8.69619 12.4363 8.97619 12.2672 9.14535L9.34467 12.0679C9.1755 12.237 8.8955 12.237 8.72633 12.0679C8.63883 11.9804 8.598 11.8695 8.598 11.7587Z" fill="white"/>
<path d="M1.60433 8.83032C1.60433 8.59116 1.80266 8.39282 2.04183 8.39282H11.9585C12.1977 8.39282 12.396 8.59116 12.396 8.83032C12.396 9.06949 12.1977 9.26782 11.9585 9.26782H2.04183C1.80266 9.26782 1.60433 9.07532 1.60433 8.83032Z" fill="white"/>
</svg>
