<svg width="25" height="25" viewBox="0 0 25 25" fill="none" xmlns="http://www.w3.org/2000/svg">
<path d="M12.2866 21.8071C10.1866 21.8071 8.32829 21.1698 6.71162 19.8951C5.09495 18.6205 4.04495 16.9911 3.56162 15.0071C3.49495 14.7571 3.54495 14.5281 3.71162 14.3201C3.87829 14.1121 4.10329 13.9911 4.38662 13.9571C4.65329 13.9238 4.89495 13.9738 5.11162 14.1071C5.32829 14.2405 5.47829 14.4405 5.56162 14.7071C5.96162 16.2071 6.78662 17.4321 8.03662 18.3821C9.28662 19.3321 10.7033 19.8071 12.2866 19.8071C14.2366 19.8071 15.891 19.1281 17.2496 17.7701C18.6083 16.4121 19.2873 14.7578 19.2866 12.8071C19.286 10.8565 18.607 9.20246 17.2496 7.84513C15.8923 6.4878 14.238 5.80846 12.2866 5.80713C11.1366 5.80713 10.0616 6.0738 9.06162 6.60713C8.06162 7.14046 7.21995 7.8738 6.53662 8.80713H8.28662C8.56995 8.80713 8.80762 8.90313 8.99962 9.09513C9.19162 9.28713 9.28729 9.52446 9.28662 9.80713C9.28595 10.0898 9.18995 10.3275 8.99862 10.5201C8.80729 10.7128 8.56995 10.8085 8.28662 10.8071H4.28662C4.00329 10.8071 3.76595 10.7111 3.57462 10.5191C3.38329 10.3271 3.28729 10.0898 3.28662 9.80713V5.80713C3.28662 5.5238 3.38262 5.28646 3.57462 5.09513C3.76662 4.9038 4.00395 4.8078 4.28662 4.80713C4.56929 4.80646 4.80695 4.90246 4.99962 5.09513C5.19229 5.2878 5.28795 5.52513 5.28662 5.80713V7.15713C6.13662 6.09046 7.17429 5.26546 8.39962 4.68213C9.62495 4.0988 10.9206 3.80713 12.2866 3.80713C13.5366 3.80713 14.7076 4.0448 15.7996 4.52013C16.8916 4.99546 17.8416 5.6368 18.6496 6.44413C19.4576 7.25146 20.0993 8.20146 20.5746 9.29413C21.05 10.3868 21.2873 11.5578 21.2866 12.8071C21.286 14.0565 21.0486 15.2275 20.5746 16.3201C20.1006 17.4128 19.459 18.3628 18.6496 19.1701C17.8403 19.9775 16.8903 20.6191 15.7996 21.0951C14.709 21.5711 13.538 21.8085 12.2866 21.8071ZM13.2866 12.4071L15.7866 14.9071C15.97 15.0905 16.0616 15.3238 16.0616 15.6071C16.0616 15.8905 15.97 16.1238 15.7866 16.3071C15.6033 16.4905 15.37 16.5821 15.0866 16.5821C14.8033 16.5821 14.57 16.4905 14.3866 16.3071L11.5866 13.5071C11.4866 13.4071 11.4116 13.2948 11.3616 13.1701C11.3116 13.0455 11.2866 12.9161 11.2866 12.7821V8.80713C11.2866 8.5238 11.3826 8.28646 11.5746 8.09513C11.7666 7.9038 12.004 7.8078 12.2866 7.80713C12.5693 7.80646 12.807 7.90246 12.9996 8.09513C13.1923 8.2878 13.288 8.52513 13.2866 8.80713V12.4071Z" fill="#9C9C9C"/>
</svg>
