<svg width="33" height="32" viewBox="0 0 33 32" fill="none" xmlns="http://www.w3.org/2000/svg">
<circle cx="16.5" cy="16" r="16" fill="#8B949E" fill-opacity="0.2"/>
<path d="M32.5 16C32.5 24.8366 25.3366 32 16.5 32C7.66344 32 0.5 24.8366 0.5 16C0.5 7.16344 7.66344 0 16.5 0C25.3366 0 32.5 7.16344 32.5 16ZM1.78 16C1.78 24.1296 8.37037 30.72 16.5 30.72C24.6296 30.72 31.22 24.1296 31.22 16C31.22 7.87037 24.6296 1.28 16.5 1.28C8.37037 1.28 1.78 7.87037 1.78 16Z" fill="#DADADA"/>
<path fill-rule="evenodd" clip-rule="evenodd" d="M13.8571 9H8.5L14.8517 17.1572L8.90632 24H11.6533L16.15 18.8246L20.1429 23.9525H25.5L18.9637 15.5582L18.9753 15.5727L24.6031 9.09529H21.8562L17.6769 13.9055L13.8571 9ZM11.4571 10.4286H13.1248L22.5429 22.5238H20.8752L11.4571 10.4286Z" fill="#DADADA"/>
</svg>
