<svg width="22" height="22" viewBox="0 0 22 22" fill="none" xmlns="http://www.w3.org/2000/svg">
<path d="M10.998 0.979004C7.98997 0.979004 6.03997 2.998 3.73397 3.734C2.79597 4.034 2.32697 4.183 2.13697 4.394C1.94697 4.604 1.89197 4.913 1.78097 5.529C0.59097 12.125 3.19097 18.223 9.39097 20.597C10.056 20.852 10.389 20.979 11.001 20.979C11.613 20.979 11.947 20.851 12.613 20.596C18.812 18.223 21.409 12.125 20.219 5.529C20.108 4.913 20.052 4.604 19.862 4.393C19.672 4.182 19.204 4.033 18.266 3.734C15.959 2.998 14.006 0.979004 10.998 0.979004Z" stroke="white" stroke-width="1.5" stroke-linecap="round" stroke-linejoin="round"/>
<path d="M8 11.979C8 11.979 9 11.979 10 13.979C10 13.979 13.177 8.979 16 7.979" stroke="white" stroke-width="1.5" stroke-linecap="round" stroke-linejoin="round"/>
</svg>
