<svg width="24" height="25" viewBox="0 0 24 25" fill="none" xmlns="http://www.w3.org/2000/svg">
<path d="M1 3.979H23V21.979H1V3.979ZM3 5.979V19.979H21V5.979H3ZM15.5 10.479C15.7652 10.479 16.0196 10.5844 16.2071 10.7719C16.3946 10.9594 16.5 11.2138 16.5 11.479C16.5 11.7442 16.3946 11.9986 16.2071 12.1861C16.0196 12.3736 15.7652 12.479 15.5 12.479C15.2348 12.479 14.9804 12.3736 14.7929 12.1861C14.6054 11.9986 14.5 11.7442 14.5 11.479C14.5 11.2138 14.6054 10.9594 14.7929 10.7719C14.9804 10.5844 15.2348 10.479 15.5 10.479ZM17.9 13.279C18.2343 12.8333 18.4378 12.3033 18.4879 11.7484C18.5379 11.1935 18.4324 10.6357 18.1833 10.1374C17.9341 9.63905 17.5511 9.21995 17.0772 8.92705C16.6033 8.63415 16.0571 8.479 15.5 8.479C14.9429 8.479 14.3967 8.63415 13.9228 8.92705C13.4489 9.21995 13.0659 9.63905 12.8167 10.1374C12.5676 10.6357 12.4621 11.1935 12.5121 11.7484C12.5622 12.3033 12.7657 12.8333 13.1 13.279C12.6032 13.6516 12.2 14.1347 11.9223 14.6901C11.6446 15.2456 11.5 15.858 11.5 16.479V17.479H13.5V16.479C13.5 15.9486 13.7107 15.4399 14.0858 15.0648C14.4609 14.6897 14.9696 14.479 15.5 14.479C16.0304 14.479 16.5391 14.6897 16.9142 15.0648C17.2893 15.4399 17.5 15.9486 17.5 16.479V17.479H19.5V16.479C19.5 15.17 18.872 14.009 17.9 13.279ZM5 9.979H9.5V11.979H5V9.979ZM5 13.979H9.5V15.979H5V13.979Z" fill="white"/>
</svg>
