<svg width="12" height="12" viewBox="0 0 12 12" fill="none" xmlns="http://www.w3.org/2000/svg">
<g clip-path="url(#clip0_118_1486)">
<path d="M6 0.5C2.9599 0.5 0.5 2.96011 0.5 6C0.5 9.0401 2.96011 11.5 6 11.5C9.0401 11.5 11.5 9.03989 11.5 6C11.5 2.9599 9.03989 0.5 6 0.5ZM6 10.6406C3.43492 10.6406 1.35938 8.56491 1.35938 6C1.35938 3.43492 3.43509 1.35938 6 1.35938C8.56508 1.35938 10.6406 3.43509 10.6406 6C10.6406 8.56508 8.56491 10.6406 6 10.6406Z" fill="#FF3E70"/>
<path d="M6 3.02051C5.74111 3.02051 5.53125 3.23037 5.53125 3.48926V6.50784C5.53125 6.76673 5.74111 6.97659 6 6.97659C6.25889 6.97659 6.46875 6.76673 6.46875 6.50784V3.48926C6.46875 3.23037 6.25889 3.02051 6 3.02051Z" fill="#FF3E70"/>
<path d="M6 8.81616C6.34949 8.81616 6.63281 8.53284 6.63281 8.18335C6.63281 7.83386 6.34949 7.55054 6 7.55054C5.65051 7.55054 5.36719 7.83386 5.36719 8.18335C5.36719 8.53284 5.65051 8.81616 6 8.81616Z" fill="#FF3E70"/>
</g>
<defs>
<clipPath id="clip0_118_1486">
<rect width="12" height="12" fill="white"/>
</clipPath>
</defs>
</svg>
