<svg width="33" height="32" viewBox="0 0 33 32" fill="none" xmlns="http://www.w3.org/2000/svg">
<circle cx="16.5" cy="16" r="16" fill="#8B949E" fill-opacity="0.2"/>
<path d="M32.5 16C32.5 24.8366 25.3366 32 16.5 32C7.66344 32 0.5 24.8366 0.5 16C0.5 7.16344 7.66344 0 16.5 0C25.3366 0 32.5 7.16344 32.5 16ZM1.78 16C1.78 24.1296 8.37037 30.72 16.5 30.72C24.6296 30.72 31.22 24.1296 31.22 16C31.22 7.87037 24.6296 1.28 16.5 1.28C8.37037 1.28 1.78 7.87037 1.78 16Z" fill="#DADADA"/>
<path d="M16.5518 7C17.7689 7.00001 18.9496 7.22145 20.0635 7.66406C21.1404 8.09193 22.1069 8.70401 22.9404 9.47852C23.774 10.2605 24.4303 11.1681 24.8877 12.1787C25.3598 13.2336 25.6031 14.3477 25.5957 15.5059C25.5957 16.6566 25.352 17.7777 24.8799 18.8252C24.4225 19.8359 23.7662 20.7434 22.9326 21.5254C22.099 22.3073 21.1327 22.912 20.0557 23.3398C18.9417 23.7825 17.7612 24.0039 16.5439 24.0039C15.2385 24.0039 13.992 23.7534 12.8193 23.252L8.89453 25L9.63184 20.9795C8.25237 19.4451 7.5 17.512 7.5 15.498C7.50004 14.3473 7.74373 13.2262 8.21582 12.1787C8.6732 11.1681 9.3295 10.2605 10.1631 9.47852C10.9966 8.69662 11.9631 8.09192 13.04 7.66406C14.154 7.22144 15.3345 7 16.5518 7ZM14.0957 11.8027C13.0925 11.2864 12.5173 12.3189 12.2812 12.8574C10.8575 16.2877 19.4142 22.8162 21.1553 18.3164C21.2438 17.9254 21.207 17.7776 21.0742 17.6006C20.8087 17.4163 20.4985 17.3354 20.2256 17.1953C19.8423 17.0037 19.5624 16.8853 19.3633 16.8115C19.2379 16.7673 18.9421 16.6347 18.8389 16.7158C18.5144 16.9816 18.1676 17.7339 17.7988 17.874C16.8841 17.697 16.036 17.0695 15.3721 16.4277C15.077 16.1474 14.5311 15.3507 14.4131 15.1367C14.3911 14.9155 14.7893 14.6208 14.8779 14.4512C15.3353 13.9348 14.9887 13.6094 14.9297 13.3955C14.8264 13.1742 14.649 12.7757 14.4941 12.4512C14.3615 12.2373 14.3315 11.9208 14.0957 11.8027Z" fill="#DADADA"/>
</svg>
